HIERARCHY
ROOT joint_Root
{
	OFFSET 0.0 0.0 0.0
	CHANNELS 6 Xposition Yposition Zposition Zrotation Xrotation Yrotation 
	JOINT Hips
	{
		OFFSET -0.726466 93.3139 -2.00062
		CHANNELS 6 Xposition Yposition Zposition Zrotation Xrotation Yrotation 
		JOINT Spine
		{
			OFFSET 15.7357 0.0 0.0
			CHANNELS 6 Xposition Yposition Zposition Zrotation Xrotation Yrotation 
			JOINT Chest
			{
				OFFSET 8.98455 -0.406207 0.0
				CHANNELS 6 Xposition Yposition Zposition Zrotation Xrotation Yrotation 
				JOINT Neck
				{
					OFFSET 16.3773 0.0 0.0
					CHANNELS 6 Xposition Yposition Zposition Zrotation Xrotation Yrotation 
					JOINT Head
					{
						OFFSET 6.45672 0.0 0.0
						CHANNELS 6 Xposition Yposition Zposition Zrotation Xrotation Yrotation 
						End Site
						{
							OFFSET 0.0 0.0 0.0
						}
					}
				}
				JOINT Shoulder_L
				{
					OFFSET 12.9942 -0.242716 4.98039
					CHANNELS 6 Xposition Yposition Zposition Zrotation Xrotation Yrotation 
					JOINT UpperArm_L
					{
						OFFSET 5.34809 0.0 0.0
						CHANNELS 6 Xposition Yposition Zposition Zrotation Xrotation Yrotation 
						JOINT LowerArm_L
						{
							OFFSET 24.3286 1.87007e-05 0.0
							CHANNELS 6 Xposition Yposition Zposition Zrotation Xrotation Yrotation 
							JOINT Hand_L
							{
								OFFSET 22.2916 0.0 0.0
								CHANNELS 6 Xposition Yposition Zposition Zrotation Xrotation Yrotation 
								End Site
								{
									OFFSET 0.0 0.0 0.0
								}
							}
						}
					}
				}
				JOINT Shoulder_R
				{
					OFFSET 12.9945 -0.242716 -4.98039
					CHANNELS 6 Xposition Yposition Zposition Zrotation Xrotation Yrotation 
					JOINT UpperArm_R
					{
						OFFSET -5.34813 0.0 0.0
						CHANNELS 6 Xposition Yposition Zposition Zrotation Xrotation Yrotation 
						JOINT LowerArm_R
						{
							OFFSET -24.3289 0.000322201 0.0
							CHANNELS 6 Xposition Yposition Zposition Zrotation Xrotation Yrotation 
							JOINT Hand_R
							{
								OFFSET -22.2915 -0.000108084 0.0
								CHANNELS 6 Xposition Yposition Zposition Zrotation Xrotation Yrotation 
								End Site
								{
									OFFSET 0.0 0.0 0.0
								}
							}
						}
					}
				}
			}
		}
		JOINT UpperLeg_L
		{
			OFFSET -2.19248 -6.46944 0.0
			CHANNELS 6 Xposition Yposition Zposition Zrotation Xrotation Yrotation 
			JOINT LowerLeg_L
			{
				OFFSET 39.0811 0.0 -1.23785e-05
				CHANNELS 6 Xposition Yposition Zposition Zrotation Xrotation Yrotation 
				JOINT Foot_L
				{
					OFFSET 40.9854 0.0 -1.26872e-05
					CHANNELS 6 Xposition Yposition Zposition Zrotation Xrotation Yrotation 
					JOINT Toes_L
					{
						OFFSET 11.7543 0.0 0.0
						CHANNELS 6 Xposition Yposition Zposition Zrotation Xrotation Yrotation 
						End Site
						{
							OFFSET 0.0 0.0 0.0
						}
					}
				}
			}
		}
		JOINT UpperLeg_R
		{
			OFFSET -2.19251 6.46944 0.0
			CHANNELS 6 Xposition Yposition Zposition Zrotation Xrotation Yrotation 
			JOINT LowerLeg_R
			{
				OFFSET -39.0811 -0.00228153 -0.0401928
				CHANNELS 6 Xposition Yposition Zposition Zrotation Xrotation Yrotation 
				JOINT Foot_R
				{
					OFFSET -40.9854 0.0 0.0
					CHANNELS 6 Xposition Yposition Zposition Zrotation Xrotation Yrotation 
					JOINT Toes_R
					{
						OFFSET -11.7543 0.0 0.0
						CHANNELS 6 Xposition Yposition Zposition Zrotation Xrotation Yrotation 
						End Site
						{
							OFFSET 0.0 0.0 0.0
						}
					}
				}
			}
		}
	}
}
MOTION
Frames:	5
Frame Time:	0.0333333
0.000000 0.000000 0.000000 0.000000 0.000000 -0.000000 -0.745560 92.338400 -1.600420 88.115900 -1.100260 4.721570 15.735700 0.000005 -0.000001 79.637500 86.189400 -79.110700 8.984550 -0.406207 -0.000000 -0.262419 -1.407440 1.049820 16.377300 -0.000001 -0.000001 3.707660 -2.242220 0.301602 6.456720 -0.000001 -0.000000 6.299860 -2.403140 -1.484130 12.994200 -0.242716 4.980390 -87.575500 -7.750650 -72.569800 5.348090 -0.000007 -0.000001 -84.258500 -30.499700 -87.114200 24.328600 0.000019 0.000005 10.598500 0.090273 -89.517700 22.291600 -0.000001 0.000005 18.671500 5.576340 -10.017400 12.994500 -0.242716 -4.980390 90.642100 -2.132920 -73.241700 -5.348130 -0.000001 -0.000004 -76.890300 -27.672500 -95.583300 -24.328900 0.000322 -0.000009 15.972700 2.210800 -82.325700 -22.291500 -0.000108 -0.000004 22.446900 5.365120 -1.836170 -2.192480 -6.469440 -0.000000 -175.546000 -6.826650 -2.302260 39.081100 -0.000007 -0.000012 -0.098185 0.232777 22.869900 40.985400 -0.000006 -0.000013 -0.311839 2.863460 -66.008000 11.754300 -0.000000 0.000003 -0.000036 -0.000426 -16.594200 -2.192510 6.469440 -0.000001 179.563000 14.921100 -179.185000 -39.081100 -0.002282 -0.040193 -0.008158 0.032694 19.348400 -40.985400 0.000008 0.000006 4.133280 6.314070 -65.924800 -11.754300 -0.000006 -0.000006 -0.006189 -0.072539 -19.525500
0.000000 0.000000 0.000000 0.000000 0.000000 -0.000000 -0.735960 92.337300 -1.604730 88.091200 -1.118120 4.689680 15.735700 0.000005 -0.000001 79.658500 86.198100 -79.116700 8.984550 -0.406207 -0.000000 -0.278744 -1.402710 1.079800 16.377300 -0.000001 -0.000001 3.625230 -2.363820 0.337823 6.456720 -0.000001 -0.000000 6.216990 -2.599650 -1.499410 12.994200 -0.242716 4.980390 -87.581700 -7.736690 -72.582900 5.348090 -0.000007 -0.000001 -84.351500 -30.565700 -87.120600 24.328600 0.000019 0.000005 10.585300 0.047448 -89.746200 22.291600 -0.000001 0.000005 18.693400 5.577740 -10.091800 12.994500 -0.242716 -4.980390 90.631700 -2.095920 -73.222600 -5.348130 -0.000001 -0.000004 -76.485700 -27.849700 -95.340800 -24.328900 0.000322 -0.000009 15.834000 2.192720 -82.318300 -22.291500 -0.000108 -0.000004 22.430500 5.369960 -1.985530 -2.192480 -6.469440 -0.000000 -175.537000 -6.856340 -2.358060 39.081100 -0.000007 -0.000012 -0.097078 0.229733 22.907500 40.985400 -0.000006 -0.000013 -0.294128 2.876290 -66.021500 11.754300 -0.000000 0.000003 -0.000036 -0.000425 -16.594100 -2.192510 6.469440 -0.000001 179.607000 14.826200 -179.236000 -39.081100 -0.002282 -0.040193 -0.006975 0.029295 19.366600 -40.985400 0.000008 0.000006 4.226210 6.250990 -65.937900 -11.754300 -0.000006 -0.000006 -0.006089 -0.071640 -19.488800
0.000000 0.000000 0.000000 0.000000 0.000000 -0.000000 -0.728043 92.346200 -1.631660 88.099700 -1.109380 4.643880 15.735700 0.000005 -0.000001 79.482500 86.207400 -78.941900 8.984550 -0.406207 -0.000000 -0.301134 -1.422320 1.076900 16.377300 -0.000001 -0.000001 3.475770 -2.434240 0.342123 6.456720 -0.000001 -0.000000 6.241800 -2.703050 -1.391480 12.994200 -0.242716 4.980390 -87.595400 -7.684170 -72.564900 5.348090 -0.000007 -0.000001 -84.393100 -30.580300 -87.132000 24.328600 0.000019 0.000005 10.463200 -0.004285 -90.023300 22.291600 -0.000001 0.000005 18.648300 5.576120 -10.006000 12.994500 -0.242716 -4.980390 90.611700 -2.025410 -73.191100 -5.348130 -0.000001 -0.000004 -75.862400 -28.022200 -94.937300 -24.328900 0.000322 -0.000009 15.757000 2.178170 -82.329800 -22.291500 -0.000108 -0.000004 22.474400 5.370990 -2.017310 -2.192480 -6.469440 -0.000000 -175.558000 -6.802290 -2.398400 39.081100 -0.000007 -0.000012 -0.098476 0.233670 22.852200 40.985400 -0.000006 -0.000013 -0.301097 2.848220 -65.974400 11.754300 -0.000000 0.000003 -0.000035 -0.000417 -16.593800 -2.192510 6.469440 -0.000001 179.623000 14.832600 -179.296000 -39.081100 -0.002282 -0.040193 -0.004995 0.023694 19.343300 -40.985400 0.000008 0.000006 4.303770 6.224840 -65.913900 -11.754300 -0.000006 -0.000006 -0.006203 -0.072668 -19.530700
0.000000 0.000000 0.000000 0.000000 0.000000 -0.000000 -0.721285 92.340800 -1.644310 88.088000 -1.131530 4.668180 15.735700 0.000005 -0.000001 79.590000 86.189300 -79.047900 8.984550 -0.406207 -0.000000 -0.263004 -1.414780 1.080370 16.377300 -0.000001 -0.000001 3.441420 -2.515710 0.401643 6.456720 -0.000001 -0.000000 5.999850 -2.789210 -1.388630 12.994200 -0.242716 4.980390 -87.600200 -7.661450 -72.549500 5.348090 -0.000007 -0.000001 -84.325600 -30.589200 -86.936000 24.328600 0.000019 0.000005 10.249600 -0.055536 -90.307200 22.291600 -0.000001 0.000005 18.668300 5.577610 -10.084500 12.994500 -0.242716 -4.980390 90.600400 -1.984690 -73.164900 -5.348130 -0.000001 -0.000004 -75.140900 -28.182600 -94.368100 -24.328900 0.000322 -0.000009 15.616100 2.139330 -82.394300 -22.291500 -0.000108 -0.000004 22.551800 5.369880 -1.982800 -2.192480 -6.469440 -0.000000 -175.553000 -6.849450 -2.417320 39.081100 -0.000007 -0.000012 -0.096802 0.229001 22.914500 40.985400 -0.000006 -0.000013 -0.285674 2.854380 -65.992100 11.754300 -0.000000 0.000003 -0.000034 -0.000400 -16.593100 -2.192510 6.469440 -0.000001 179.620000 14.805400 -179.295000 -39.081100 -0.002282 -0.040193 -0.005594 0.025351 19.377400 -40.985400 0.000008 0.000006 4.265770 6.241720 -65.918800 -11.754300 -0.000006 -0.000006 -0.006192 -0.072572 -19.526800
0.000000 0.000000 0.000000 0.000000 0.000000 -0.000000 -0.708498 92.346300 -1.676760 88.086800 -1.144200 4.629580 15.735700 0.000005 -0.000001 79.531700 86.184100 -78.989800 8.984550 -0.406207 -0.000000 -0.254077 -1.424230 1.079930 16.377300 -0.000001 -0.000001 3.276450 -2.521500 0.373344 6.456720 -0.000001 -0.000000 5.977030 -2.801470 -1.313010 12.994200 -0.242716 4.980390 -87.625600 -7.597440 -72.587500 5.348090 -0.000007 -0.000001 -84.026600 -30.677300 -86.521200 24.328600 0.000019 0.000005 10.073500 -0.104506 -90.588300 22.291600 -0.000001 0.000005 18.634100 5.577130 -10.059400 12.994500 -0.242716 -4.980390 90.566500 -1.878080 -73.210900 -5.348130 -0.000001 -0.000004 -74.192200 -28.388100 -93.684400 -24.328900 0.000322 -0.000009 15.679800 2.139160 -82.427000 -22.291500 -0.000108 -0.000004 22.454800 5.371830 -2.043230 -2.192480 -6.469440 -0.000000 -175.570000 -6.794780 -2.467340 39.081100 -0.000007 -0.000012 -0.098388 0.232990 22.893700 40.985400 -0.000006 -0.000013 -0.298655 2.776920 -65.961200 11.754300 -0.000000 0.000003 -0.000034 -0.000403 -16.593300 -2.192510 6.469440 -0.000001 179.640000 14.819100 -179.366000 -39.081100 -0.002282 -0.040193 -0.004666 0.022715 19.376200 -40.985400 0.000008 0.000006 4.311250 6.229480 -65.892900 -11.754300 -0.000006 -0.000006 -0.006327 -0.073775 -19.575900
